<svg width="21" height="20" viewBox="0 0 21 20" fill="none" xmlns="http://www.w3.org/2000/svg">
<g clip-path="url(#clip0_574_3360)">
<path d="M8.67035 3.20854L1.61202 14.9919C1.46649 15.2439 1.38949 15.5296 1.38868 15.8206C1.38786 16.1117 1.46326 16.3978 1.60738 16.6506C1.75149 16.9035 1.95929 17.1142 2.21011 17.2617C2.46093 17.4093 2.74602 17.4887 3.03702 17.4919H17.1537C17.4447 17.4887 17.7298 17.4093 17.9806 17.2617C18.2314 17.1142 18.4392 16.9035 18.5833 16.6506C18.7274 16.3978 18.8028 16.1117 18.802 15.8206C18.8012 15.5296 18.7242 15.2439 18.5787 14.9919L11.5204 3.20854C11.3718 2.96363 11.1626 2.76114 10.913 2.62061C10.6634 2.48008 10.3818 2.40625 10.0954 2.40625C9.80891 2.40625 9.5273 2.48008 9.27769 2.62061C9.02809 2.76114 8.81891 2.96363 8.67035 3.20854Z" stroke="#9DA6AB" stroke-width="2" stroke-linecap="round" stroke-linejoin="round"/>
<path d="M10.0957 7.49219V10.8255" stroke="#9DA6AB" stroke-width="2" stroke-linecap="round" stroke-linejoin="round"/>
<path d="M10.0957 14.1602H10.104" stroke="#9DA6AB" stroke-width="2" stroke-linecap="round" stroke-linejoin="round"/>
</g>
<defs>
<clipPath id="clip0_574_3360">
<rect width="20" height="20" fill="white" transform="translate(0.0957031 -0.0078125)"/>
</clipPath>
</defs>
</svg>
