<svg width="21" height="21" viewBox="0 0 21 21" fill="none" xmlns="http://www.w3.org/2000/svg">
<path d="M14.1377 3.71484H15.8044C16.2464 3.71484 16.6703 3.89044 16.9829 4.203C17.2954 4.51556 17.471 4.93948 17.471 5.38151V17.0482C17.471 17.4902 17.2954 17.9141 16.9829 18.2267C16.6703 18.5392 16.2464 18.7148 15.8044 18.7148H5.80436C5.36233 18.7148 4.93841 18.5392 4.62585 18.2267C4.31329 17.9141 4.1377 17.4902 4.1377 17.0482V5.38151C4.1377 4.93948 4.31329 4.51556 4.62585 4.203C4.93841 3.89044 5.36233 3.71484 5.80436 3.71484H7.47103" stroke="#9DA6AB" stroke-width="2" stroke-linecap="round" stroke-linejoin="round"/>
<path d="M13.305 2.05078H8.30501C7.84478 2.05078 7.47168 2.42388 7.47168 2.88411V4.55078C7.47168 5.01102 7.84478 5.38411 8.30501 5.38411H13.305C13.7653 5.38411 14.1383 5.01102 14.1383 4.55078V2.88411C14.1383 2.42388 13.7653 2.05078 13.305 2.05078Z" stroke="#9DA6AB" stroke-width="2" stroke-linecap="round" stroke-linejoin="round"/>
<path d="M10.2402 8.94141H14.1371" stroke="#9DA6AB" stroke-width="1.5" stroke-linecap="round" stroke-linejoin="round"/>
<path d="M10.2402 11.9414H14.1371" stroke="#9DA6AB" stroke-width="1.5" stroke-linecap="round" stroke-linejoin="round"/>
<path d="M10.2402 14.9414H14.1371" stroke="#9DA6AB" stroke-width="1.5" stroke-linecap="round" stroke-linejoin="round"/>
<path d="M8.13672 8.94141H8.13732" stroke="#9DA6AB" stroke-width="1.5" stroke-linecap="round" stroke-linejoin="round"/>
<path d="M8.13672 11.9414H8.13732" stroke="#9DA6AB" stroke-width="1.5" stroke-linecap="round" stroke-linejoin="round"/>
<path d="M8.13672 14.9414H8.13732" stroke="#9DA6AB" stroke-width="1.5" stroke-linecap="round" stroke-linejoin="round"/>
</svg>
