<svg width="11" height="11" viewBox="0 0 11 11" fill="none" xmlns="http://www.w3.org/2000/svg">
<g clip-path="url(#clip0_574_3851)">
<path d="M5.97354 0.171875C3.21675 0.171875 0.973633 2.41387 0.973633 5.17137C0.973633 7.92778 3.21675 10.1709 5.97354 10.1709C8.73066 10.1709 10.9736 7.92778 10.9736 5.17137C10.9736 2.41387 8.73066 0.171875 5.97354 0.171875ZM5.97354 9.05703C3.83068 9.05703 2.08753 7.31396 2.08753 5.1714C2.08753 3.02791 3.83068 1.28487 5.97354 1.28487C8.11664 1.28487 9.85979 3.02794 9.85979 5.1714C9.85977 7.31396 8.11662 9.05703 5.97354 9.05703Z" fill="#4B5563"/>
<path d="M7.61462 6.07481C7.29521 6.62291 6.70128 6.96292 6.06465 6.96292C5.07602 6.96292 4.27072 6.15781 4.27072 5.16915C4.27072 4.17967 5.07602 3.37429 6.06465 3.37429C6.70131 3.37429 7.29521 3.71555 7.61462 4.26256L7.6559 4.33405H8.86091L8.78857 4.14005C8.57889 3.58454 8.21097 3.11223 7.72393 2.77511C7.23567 2.43712 6.66215 2.25781 6.06465 2.25781C4.45958 2.25781 3.1543 3.56422 3.1543 5.16915C3.1543 6.77419 4.45958 8.07937 6.06465 8.07937C6.66215 8.07937 7.23564 7.90066 7.72393 7.56215C8.21097 7.22495 8.57889 6.7528 8.78857 6.1973L8.86091 6.00318H7.6559L7.61462 6.07481Z" fill="#4B5563"/>
</g>
<defs>
<clipPath id="clip0_574_3851">
<rect width="10" height="10" fill="white" transform="translate(0.973633 0.171875)"/>
</clipPath>
</defs>
</svg>
