<svg width="15" height="9" viewBox="0 0 15 9" fill="none" xmlns="http://www.w3.org/2000/svg">
<path d="M7.14497 6.40442L1.789 1.10839C1.59883 0.921047 1.34113 0.816018 1.07259 0.816407C0.804043 0.816796 0.546654 0.922572 0.357043 1.11046C0.167432 1.29836 0.0611309 1.55297 0.0615246 1.8183C0.0619183 2.08364 0.168974 2.33794 0.359142 2.52529L6.42524 8.52532C6.60944 8.7066 6.85726 8.81078 7.11719 8.81618C7.37712 8.82159 7.62916 8.72782 7.82091 8.55435L13.9344 2.52943C14.1246 2.34209 14.2316 2.08778 14.232 1.82245C14.2324 1.55712 14.1261 1.3025 13.9365 1.11461C13.7469 0.926718 13.4895 0.820943 13.221 0.820554C12.9524 0.820165 12.6947 0.925195 12.5045 1.11254L7.14497 6.40442Z" fill="#4B5563"/>
</svg>
