<svg xmlns="http://www.w3.org/2000/svg" viewBox="0 0 378.6 79.28"><defs><style>.cls-1{fill:#999;}.cls-2{fill:#e0121c;}</style></defs><g id="Layer_2" data-name="Layer 2"><g id="Layer_1-2" data-name="Layer 1"><path class="cls-1" d="M19.34,32.27v21A11.77,11.77,0,0,0,31.1,65.08h2.75V77.27H31.1a24,24,0,0,1-24-23.95v-21H0V21.85H7.15v-15H19.34v15H34.07V32.27Zm20.48,45H52.63V46c0-8.51,4.83-13.76,11.87-13.76s11.24,4.83,11.24,13.44V77.3h12.7V46c0-8.93,4.94-13.76,11.87-13.76,7.14,0,11.24,4.73,11.24,13.55V77.3h12.71V41.91c0-13.55-7.35-21.22-19.43-21.22-8.4,0-14.28,3.89-18.7,9.77-2.94-5.88-8.61-9.77-16.59-9.77-8.51,0-13.34,4.62-16.91,9.56v-8.4H39.82Zm65-56.61c-8.4,0-14.28,3.89-18.7,9.77-2.94-5.88-8.61-9.77-16.59-9.77-8.51,0-13.34,4.62-16.91,9.56v-8.4H39.82V77.3H52.63V46c0-8.51,4.83-13.76,11.87-13.76s11.24,4.83,11.24,13.44V77.3H88.45V46c0-8.93,4.93-13.76,11.86-13.76,7.14,0,11.24,4.73,11.24,13.55V77.3h12.71V41.91c0-13.55-7.35-21.22-19.43-21.22"/><path class="cls-2" d="M378.6,41.91V77.3H365.9V45.79c0-8.82-4.1-13.55-11.24-13.55-6.93,0-11.87,4.83-11.87,13.76V77.3H330.08V45.68c0-8.61-4.2-13.44-11.23-13.44-6.83,0-11.57,5-11.85,13v32H294.17V68.72c-3.57,5.24-8.72,9.73-17.31,9.73-12.5,0-19.74-8.4-19.74-21.32V21.85h12.71v31.5c0,8.61,4.3,13.44,11.86,13.44,7.16,0,12.21-4.78,12.48-13v-32H307v8.36c3.57-4.92,8.4-9.52,16.89-9.52,8,0,13.65,3.89,16.59,9.77,4.41-5.88,10.29-9.77,18.7-9.77C371.25,20.69,378.6,28.36,378.6,41.91Zm-124.92-20c-9,.15-15,5.66-18.27,13.56V21.85H222.6V77.3h12.81v-20c0-14.42,7.48-21.64,18.27-21.92Zm-81,0H149.72V19.22c0-5.67,2.21-8.4,7-8.4a22.34,22.34,0,0,1,7.46,1.36V1.47A34.25,34.25,0,0,0,153.82,0c-5.35,0-9.45,1.47-12.39,4.41s-4.52,7.56-4.52,13.65v3.69H119.27a21.17,21.17,0,0,1,7.1,10.61h10.54V77.3h12.81V32.36H162A33.2,33.2,0,0,1,172.65,21.86Zm46.51,28a29.39,29.39,0,1,0-29.39,29.39A29.39,29.39,0,0,0,219.16,49.89ZM189.77,66.44a16.55,16.55,0,1,1,16.55-16.55A16.54,16.54,0,0,1,189.77,66.44Zm0-45.94a29.39,29.39,0,1,0,29.39,29.39A29.38,29.38,0,0,0,189.77,20.5m0,45.94a16.55,16.55,0,1,1,16.55-16.55,16.54,16.54,0,0,1-16.55,16.55"/></g></g></svg>